<svg xmlns="http://www.w3.org/2000/svg" viewBox="0 0 160 180" fill="none"><ellipse cx="81" cy="164" rx="52" ry="9" fill="#723c36" opacity=".1"/><g stroke="#537346" stroke-width="3" stroke-linecap="round" stroke-linejoin="round"><path d="M80 114V56m0 40-26-34m26 20 27-38"/><path d="M68 102c-19-2-27-17-18-23 10-6 18 8 18 23Zm26-5c17-6 25-21 14-25-10-4-15 10-14 25Z" fill="#8cb765"/></g><g stroke="#c7a98b" stroke-width="2" fill="#fffdf6"><g transform="translate(80 48)"><ellipse cy="-11" rx="5" ry="10"/><ellipse cy="-11" rx="5" ry="10" transform="rotate(45)"/><ellipse cy="-11" rx="5" ry="10" transform="rotate(90)"/><ellipse cy="-11" rx="5" ry="10" transform="rotate(135)"/><ellipse cy="-11" rx="5" ry="10" transform="rotate(180)"/><ellipse cy="-11" rx="5" ry="10" transform="rotate(225)"/><ellipse cy="-11" rx="5" ry="10" transform="rotate(270)"/><ellipse cy="-11" rx="5" ry="10" transform="rotate(315)"/></g><g transform="translate(50 60) scale(.8)"><ellipse cy="-11" rx="5" ry="10"/><ellipse cy="-11" rx="5" ry="10" transform="rotate(45)"/><ellipse cy="-11" rx="5" ry="10" transform="rotate(90)"/><ellipse cy="-11" rx="5" ry="10" transform="rotate(135)"/><ellipse cy="-11" rx="5" ry="10" transform="rotate(180)"/><ellipse cy="-11" rx="5" ry="10" transform="rotate(225)"/><ellipse cy="-11" rx="5" ry="10" transform="rotate(270)"/><ellipse cy="-11" rx="5" ry="10" transform="rotate(315)"/></g><g transform="translate(110 42) scale(.8)"><ellipse cy="-11" rx="5" ry="10"/><ellipse cy="-11" rx="5" ry="10" transform="rotate(45)"/><ellipse cy="-11" rx="5" ry="10" transform="rotate(90)"/><ellipse cy="-11" rx="5" ry="10" transform="rotate(135)"/><ellipse cy="-11" rx="5" ry="10" transform="rotate(180)"/><ellipse cy="-11" rx="5" ry="10" transform="rotate(225)"/><ellipse cy="-11" rx="5" ry="10" transform="rotate(270)"/><ellipse cy="-11" rx="5" ry="10" transform="rotate(315)"/></g></g><g fill="#f6c343" stroke="#c98b2e" stroke-width="2"><circle cx="80" cy="48" r="7"/><circle cx="50" cy="60" r="6"/><circle cx="110" cy="42" r="6"/></g><g stroke="#9d684c" stroke-width="3" stroke-linejoin="round"><path d="M48 114h65l-10 47H58l-10-47Z" fill="#8fb3d9"/><rect x="43" y="108" width="75" height="15" rx="5" fill="#b5cde8"/><path d="m60 131 4 21" stroke="#d3e2f2" stroke-width="5" stroke-linecap="round"/></g></svg>
