<svg xmlns="http://www.w3.org/2000/svg" viewBox="0 0 128 128" fill="none"><ellipse cx="64" cy="110" rx="44" ry="8" fill="#723c36" opacity=".1"/><g stroke="#80503a" stroke-width="3" stroke-linecap="round" stroke-linejoin="round"><path d="M25 66H13v15h15m73-15h14v15h-15" fill="#ffe0a0"/><path d="M23 56h82v31c0 17-82 17-82 0V56Z" fill="#e7b68a"/><path d="M31 67v16" stroke="#ffe1b7" stroke-width="5"/><ellipse cx="64" cy="56" rx="41" ry="16" fill="#ffe0a0"/><ellipse cx="64" cy="56" rx="34" ry="11" fill="#e5a451" stroke="none"/><path d="M42 54c7-8 33-10 44-1s-21 12-30 7 9-9 16-4" stroke="#ffdc88" stroke-width="3"/><path d="m43 60 4 1m35-13 5 2" stroke="#819f57" stroke-width="3"/><path d="M44 92c11 3 29 3 41 0" stroke="#b88661" stroke-width="2"/></g><path d="M39 32c-9-10 7-12 0-21m19 21c-7-8 6-9 1-17" stroke="#d4ad87" stroke-width="3" stroke-linecap="round"/></svg>