<svg xmlns="http://www.w3.org/2000/svg" viewBox="0 0 128 128" fill="none"><ellipse cx="65" cy="108" rx="45" ry="8" fill="#723c36" opacity=".1"/><g stroke="#a17135" stroke-width="3" stroke-linejoin="round"><path d="m22 72 67-12 21 32-69 14-19-34Z" fill="#edb33f"/><path d="m18 58 68-12 23 33-71 14-20-35Z" fill="#ffd767"/><path d="m26 40 48-17 34 34-63 22-19-39Z" fill="#ffe08a"/><path d="m45 79 63-22v20L45 99V79Z" fill="#efb748"/><path d="M26 40v19l19 40V79L26 40Z" fill="#f6c44f"/><path d="M75 47c-2-7 13-10 15-3s-12 11-15 3ZM44 49c-2-5 6-8 9-4s-7 10-9 4Z" fill="#efb349" stroke="#d6983f" stroke-width="2"/><path d="m75 77 10-3m-27 13 5-2M36 75v9" stroke="#bf8b38" stroke-width="4" stroke-linecap="round"/><path d="m47 65 15-5" stroke="#fff0ba" stroke-width="4" stroke-linecap="round"/></g></svg>
