<svg xmlns="http://www.w3.org/2000/svg" viewBox="0 0 128 128" fill="none"><ellipse cx="64" cy="110" rx="44" ry="8" fill="#723c36" opacity=".1"/><g stroke="#80503a" stroke-width="3" stroke-linecap="round" stroke-linejoin="round"><path d="M25 66H13v15h15m73-15h14v15h-15" fill="#f5c485"/><path d="M23 56h82v31c0 17-82 17-82 0V56Z" fill="#e5ad8a"/><path d="M31 67v16" stroke="#ffe1b7" stroke-width="5"/><ellipse cx="64" cy="56" rx="41" ry="16" fill="#f5c485"/><ellipse cx="64" cy="56" rx="34" ry="11" fill="#d77747" stroke="none"/><ellipse cx="69" cy="46" rx="15" ry="10" fill="#ed8060" stroke="#ad5d42" stroke-width="2"/><path d="m56 45-7-10m5 4c-10 2-13-8-7-12l1 7 6-3c5 6 4 10 0 8Zm26 6 6-9m-2 4c-3-9 5-12 8-6l-4 3 6 2c0 7-7 11-10 5Z" fill="#f39a75" stroke="#ad5d42" stroke-width="2"/><path d="m60 52-7 5m13-1-4 5m14-8 8 5" stroke="#d26442" stroke-width="3"/><circle cx="64" cy="42" r="1.5" fill="#875440" stroke="none"/><circle cx="74" cy="42" r="1.5" fill="#875440" stroke="none"/><path d="M44 92c11 3 29 3 41 0" stroke="#b88661" stroke-width="2"/></g><path d="M39 32c-9-10 7-12 0-21m19 21c-7-8 6-9 1-17" stroke="#d4ad87" stroke-width="3" stroke-linecap="round"/></svg>