<svg xmlns="http://www.w3.org/2000/svg" viewBox="0 0 128 128" stroke-linecap="round" stroke-linejoin="round"><style>.o,.p,.q,.s,.t,.u{stroke:#4a2a22}.o,.p,.q,.h,.l{fill:none}.o,.s{stroke-width:3}.p,.t{stroke-width:2}.q,.u{stroke-width:1.4}.h{stroke:#fff;stroke-opacity:.55}</style><defs><linearGradient id="ma-1" x1="0" y1="0" x2="1" y2="0"><stop offset="0" stop-color="#f5f8fa"/><stop offset=".3" stop-color="#d9e0e5"/><stop offset=".6" stop-color="#c3cdd5"/><stop offset=".6" stop-color="#a4b0bb"/><stop offset="1" stop-color="#86929f"/></linearGradient><linearGradient id="ma-2" x1="0" y1="0" x2="0" y2="1"><stop offset="0" stop-color="#76828e"/><stop offset="1" stop-color="#c7d0d7"/></linearGradient><linearGradient id="ma-3" x1="0" y1="0" x2="0" y2="1"><stop offset="0" stop-color="#efab8b"/><stop offset=".6" stop-color="#E4733D"/><stop offset="1" stop-color="#c96536"/></linearGradient><path id="ma-4" d="M21 64h-7q-5 0-5 5t5 5h8M107 64h7q5 0 5 5t-5 5h-8"/><g id="ma-5"><g class="u" fill="#dd8f42"><ellipse cx="-7.9" cy=".7" rx="5.5" ry="4.3"/><ellipse cx="7.2" cy="1" rx="5.5" ry="4.3"/><ellipse cx="-.7" cy="-1.8" rx="6.2" ry="4.8"/><ellipse cx=".7" cy="2.1" rx="5" ry="3.9"/></g><g fill="#f8bd72"><ellipse cx="-9.3" cy="-.7" rx="2.3" ry="1.7"/><ellipse cx="5.8" cy="-.4" rx="2.3" ry="1.7"/><ellipse cx="-2.3" cy="-3.3" rx="2.6" ry="1.9"/><ellipse cx="-.5" cy=".9" rx="2.1" ry="1.5"/></g><g fill="#8a3e18"><circle cx="2" cy="2.5" r=".9"/><circle cx="-6" cy="2" r=".8"/><circle cx="7.5" cy="0" r=".8"/></g></g><path id="ma-6" d="M47 59.4c0 0 1.6-3.3 3-4.2s3.8-1.5 5.6-1.4s4.3.9 5.4 1.8s1.4 3.8 1.4 3.8s-15.4 0-15.4 0z"/><g id="ma-7"><circle cx="0" cy="0" r="2.7" fill="#5fae4e" class="u"/><circle cx="-.2" cy="-.2" r="1.3" fill="#e8f8d2"/></g><path id="ma-8" d="M76.1 66.1c0 0 .9-6.9.9-10.2s-1.2-6.6-1-9.6s1.3-6.2 2.3-8.7s2.8-4.6 3.8-6.7s1.5-4.2 2.6-6.1s2.5-3.7 4.1-5s5.7-3.2 5.7-3.2s-2.6 3.2-3.6 4.8s-2.2 3.2-2.5 4.9s.2 4.3.7 5.6s2.5 2.4 2.5 2.4s3-2.3 4-3.9s1.4-3.6 1.8-5.7s.7-6.8.7-6.8s2.5 3 3.2 5s.8 4.7.8 7.3s-.6 5.4-1.1 8.2s-.9 6-2.1 8.8s-3.5 6.1-5.1 8.3s-3.5 2.7-4.7 4.9s-2.5 8.7-2.5 8.7s-10.5-3-10.5-3z"/></defs><ellipse cx="64" cy="111" rx="46" ry="7" fill="#3a1d16" opacity=".12"/><use href="#ma-4" class="l" stroke="#4a2a22" stroke-width="8.6"/><use href="#ma-4" class="l" stroke="#b06a3b" stroke-width="3.8"/><path d="M14 66.6h5M109 66.6h5" class="l" stroke="#e3a46a" stroke-width="1.3"/><path d="M19 58L23 91A41 13 0 0 0 105 91L109 58A45 20 0 0 1 19 58Z" fill="url(#ma-1)" class="s"/><path d="M21 75A43 18 0 0 0 107 75" class="l" stroke="#7d8996" stroke-width="1.6"/><path d="M21.4 78A42.6 17.6 0 0 0 106.6 78" class="l" stroke="#fff" stroke-width="1.4" opacity=".55"/><path d="M29.5 84v9" class="h" stroke-width="4.2"/><path d="M36 87v8" class="h" stroke-width="1.8" opacity=".9"/><ellipse cx="64" cy="58" rx="45" ry="20" fill="#eef2f5" class="s"/><ellipse cx="64" cy="59.5" rx="41" ry="16.5" fill="url(#ma-2)"/><ellipse cx="64" cy="62.5" rx="39.5" ry="13.5" fill="url(#ma-3)"/><path d="M24.5 62.5A39.5 13.5 0 0 1 103.5 62.5A39.5 10 0 0 0 24.5 62.5Z" fill="#000" opacity=".16"/><path d="M23 59.5A41 16.5 0 0 1 105 59.5" class="l" stroke="#4a2a22" stroke-width="1.3" opacity=".5"/><path d="M28 50Q39 41 60 38.8" class="h" stroke-width="2.6"/><path d="M90 40.5q9 2 13 6" class="h" stroke-width="1.6"/><g transform="matrix(1.12 0 0 1.3 -7.68 -21.35)"><ellipse cx="41" cy="64.5" rx="12" ry="3.6" fill="#944b28" opacity=".42"/><use href="#ma-5" transform="matrix(1 0 0 1 41 62.5)"/><use href="#ma-5" transform="matrix(.7 0 0 .7 60 71)"/><use href="#ma-5" transform="matrix(.5 0 0 .5 68.5 58.6)"/><use href="#ma-6" fill="#b92b22"/><clipPath id="ma-6c"><use href="#ma-6"/></clipPath><g clip-path="url(#ma-6c)"><use href="#ma-6" fill="#ef4733" x="-1" y="-1.2"/><path d="M50 59.4q1-3 4.8-3.2t4.8 3.2z" fill="#ff8f70"/><g fill="#ffe08a"><circle cx="53" cy="57.8" r=".7"/><circle cx="56.4" cy="57.6" r=".7"/></g></g><use href="#ma-6" class="p"/><use href="#ma-7" transform="matrix(.9 0 0 .9 74.5 66.2)"/><use href="#ma-7" transform="matrix(.9 0 0 .9 48 71.6)"/><use href="#ma-7" transform="matrix(.8 0 0 .8 97 61.6)"/></g><use href="#ma-8" fill="#b5291b"/><clipPath id="ma-8c"><use href="#ma-8"/></clipPath><g clip-path="url(#ma-8c)"><use href="#ma-8" fill="#f2503a" x="-2.6" y="-1.4"/><path d="M88.4 20.1c.7-1.2 6.1-3.5 6.1-3.5s-2.6 3.4-3.3 4.5s-.6 2.3-1.1 2.2s-2.5-2.1-1.7-3.2zM97 24.8c-.6-1.3 1.1-6.9 1.1-6.9s2.4 3.7 3 5s1 2.2.3 2.5s-3.9.7-4.4-.6z" fill="#4a2a22"/><g fill="#ff9c80"><circle cx="83.7" cy="41.2" r="1.6"/><circle cx="90.3" cy="40" r="1.2"/><circle cx="92.5" cy="46.8" r="1.6"/><circle cx="84.7" cy="48.8" r="1.2"/><circle cx="94.3" cy="37" r="1.6"/><circle cx="80" cy="50.5" r="1.2"/></g><g fill="#fff3e2"><circle cx="89.6" cy="25.2" r="1"/><circle cx="89.5" cy="29.1" r="1"/><circle cx="95.1" cy="31.6" r="1"/><circle cx="96.6" cy="27.6" r="1"/></g><path d="M76.9 55.5c1.2.6 4.6 3.3 6.8 4s5.2.1 6.2.1" class="l" stroke="#b5291b" stroke-width="1.4"/></g><use href="#ma-8" class="o"/><path d="M78.1 47.9c.3-1.5 1.1-6.3 2.1-8.8s2.9-5.2 3.4-6.3" class="h" stroke-width="2.2"/><ellipse cx="83.5" cy="68.6" rx="9" ry="2.6" fill="none" stroke="#f0b294" stroke-width="1.4"/><g class="l" stroke="#4a2a22" stroke-width="6.5" opacity=".14"><path d="M56 46c-5-5 3-8 0-13s4-8 1-13"/><path d="M65 42c-3-3.5 2.5-6 0-10"/></g><g class="l" stroke="#fff" stroke-width="4" opacity=".95"><path d="M56 46c-5-5 3-8 0-13s4-8 1-13"/><path d="M65 42c-3-3.5 2.5-6 0-10" stroke-width="3"/></g></svg>