<svg xmlns="http://www.w3.org/2000/svg" viewBox="0 0 128 128" fill="none"><ellipse cx="64" cy="109" rx="43" ry="8" fill="#723c36" opacity=".1"/><g stroke="#b78c60" stroke-width="2.8" stroke-linejoin="round"><path d="M71 23c17-5 36 22 37 43 1 24-13 37-32 33S42 79 47 60c4-18 10-33 24-37Z" fill="#f0d1a6"/><path d="M67 21c16-3 33 20 34 40 0 22-10 36-28 34S42 77 46 58c4-16 8-32 21-37Z" fill="#fff7e8"/><ellipse cx="74" cy="63" rx="20" ry="24" transform="rotate(-12 74 63)" fill="#f6bc42" stroke="#dca445" stroke-width="2"/><path d="M42 49c16-3 34 22 36 39 2 18-14 22-35 15C24 97 16 88 21 73c5-15 9-23 21-24Z" fill="#fff9eb"/><ellipse cx="47" cy="79" rx="20" ry="18" transform="rotate(24 47 79)" fill="#ffcb4e" stroke="#dda745" stroke-width="2"/></g><path d="M37 70c5-6 11-6 16-3m12-20c5-6 9-5 13-1" stroke="#ffe39c" stroke-width="4" stroke-linecap="round"/></svg>
