<svg xmlns="http://www.w3.org/2000/svg" viewBox="0 0 128 128" fill="none"><ellipse cx="64" cy="109" rx="45" ry="8" fill="#723c36" opacity=".1"/><g stroke="#a77946" stroke-width="2.8" stroke-linejoin="round"><path d="M30 35 75 20l26 24-47 18L30 35Z" fill="#f0ca85"/><path d="m30 35 24 27 47-18v13L54 77 30 50V35Z" fill="#dca960"/><path d="m24 59 42-16 25 27-45 18-22-29Z" fill="#f5d89e"/><path d="m24 59 22 29 45-18v14l-45 18-22-30V59Z" fill="#e5b36b"/><path d="m72 79 25-13 19 20-30 17-14-24Z" fill="#f2d093"/><path d="m72 79 14 24 30-17-1 10-29 17-14-22V79Z" fill="#dba45d"/></g><g fill="#c59859"><circle cx="59" cy="35" r="2"/><circle cx="76" cy="39" r="1.5"/><circle cx="45" cy="65" r="2"/><circle cx="65" cy="60" r="1.5"/><circle cx="86" cy="83" r="2"/></g><path d="m42 47 3 3m9 24 3-1m40 15 2-1" stroke="#889152" stroke-width="2.5" stroke-linecap="round"/></svg>
