<svg xmlns="http://www.w3.org/2000/svg" viewBox="0 0 128 128" fill="none"><ellipse cx="65" cy="109" rx="45" ry="8" fill="#723c36" opacity=".1"/><g stroke="#b2966d" stroke-width="2.7" stroke-linejoin="round"><path d="m55 30 30-8 27 17v29L80 82 54 62l1-32Z" fill="#efe0b9"/><path d="m55 30 29 20 28-11-27-17-30 8Z" fill="#fff4d7"/><path d="M84 50v29"/><path d="m20 55 32-9 28 19v30l-34 11-26-21V55Z" fill="#f1e3bf"/><path d="m20 55 27 21 33-11-28-19-32 9Z" fill="#fff9e6"/><path d="M47 76v29"/><path d="m82 75 19-4 16 10v17l-22 8-16-12 3-19Z" fill="#eee0b8"/><path d="m82 75 15 11 20-5-16-10-19 4Z" fill="#fff5da"/><path d="M97 87v18"/></g><g fill="#dcc7a0"><circle cx="38" cy="62" r="2"/><circle cx="55" cy="63" r="1.7"/><circle cx="67" cy="58" r="1.5"/><circle cx="74" cy="32" r="2"/><circle cx="88" cy="37" r="1.5"/><circle cx="27" cy="80" r="1.5"/><circle cx="38" cy="88" r="1.7"/><circle cx="88" cy="88" r="1.5"/></g><path d="M54 85v13m36-42v14" stroke="#fff4d7" stroke-width="3" stroke-linecap="round"/></svg>
